<svg xmlns="http://www.w3.org/2000/svg" width="241.403" height="60.789" viewBox="0 0 241.403 60.789">
  <g id="Group_31" data-name="Group 31" transform="translate(-195.819 -572.229)">
    <path id="Path_1" data-name="Path 1" d="M241.4,572.229l18.881,27.117c9.812,14.091-.406,33.139-18.224,33.566q-.327.008-.657.008h0q-.33,0-.657-.008c-17.817-.427-28.035-19.475-18.224-33.566Z" transform="translate(-14.022)" fill="#f44336"/>
    <path id="Path_2" data-name="Path 2" d="M208.38,642.415l10.451,15.009c5.431,7.8-.225,18.343-10.087,18.579q-.181,0-.364,0h0q-.183,0-.364,0c-9.862-.236-15.518-10.779-10.087-18.579Z" transform="translate(0 -42.99)" fill="#c62828"/>
    <g id="Group_1" data-name="Group 1" transform="translate(260.68 586.341)">
      <path id="Path_3" data-name="Path 3" d="M373.344,633.451H363.207V611.689H373c4.433,0,7.068,2.2,7.068,5.642a4.938,4.938,0,0,1-3.689,4.96,5.277,5.277,0,0,1,4.185,5.239C380.567,631.126,377.932,633.451,373.344,633.451Zm-1.364-17.515h-3.472v4.557h3.472c1.736,0,2.7-.775,2.7-2.263S373.716,615.936,371.98,615.936Zm.372,8.433h-3.844v4.805h3.906c1.767,0,2.79-.806,2.79-2.357S374.119,624.368,372.352,624.368Z" transform="translate(-363.207 -610.511)" fill="#263238"/>
      <path id="Path_4" data-name="Path 4" d="M415.926,608.648h5.3v22.94h-5.3Z" transform="translate(-395.498 -608.648)" fill="#263238"/>
      <path id="Path_5" data-name="Path 5" d="M445.734,640.362c-5.084,0-8.928-3.41-8.928-8.9s3.937-8.9,8.99-8.9c5.084,0,8.991,3.41,8.991,8.9S450.818,640.362,445.734,640.362Zm0-4.588c1.891,0,3.658-1.395,3.658-4.309,0-2.945-1.736-4.309-3.6-4.309-1.922,0-3.6,1.364-3.6,4.309C442.2,634.379,443.812,635.774,445.734,635.774Z" transform="translate(-408.287 -617.174)" fill="#263238"/>
      <path id="Path_6" data-name="Path 6" d="M496.694,640.362c-5.084,0-8.928-3.41-8.928-8.9s3.937-8.9,8.99-8.9c5.084,0,8.99,3.41,8.99,8.9S501.778,640.362,496.694,640.362Zm0-4.588c1.891,0,3.658-1.395,3.658-4.309,0-2.945-1.736-4.309-3.6-4.309-1.922,0-3.6,1.364-3.6,4.309C493.16,634.379,494.772,635.774,496.694,635.774Z" transform="translate(-439.501 -617.174)" fill="#263238"/>
      <path id="Path_7" data-name="Path 7" d="M546.351,614.042a6.35,6.35,0,0,1,5.332,2.635v-8.029h5.3v22.94h-5.3v-2.48a5.982,5.982,0,0,1-5.332,2.728c-4.247,0-7.626-3.472-7.626-8.928S542.1,614.042,546.351,614.042Zm1.55,4.619c-1.984,0-3.782,1.488-3.782,4.247s1.8,4.309,3.782,4.309c2.015,0,3.782-1.519,3.782-4.278S549.916,618.661,547.9,618.661Z" transform="translate(-470.713 -608.648)" fill="#263238"/>
      <path id="Path_8" data-name="Path 8" d="M622.861,633.451H612.724V611.689h9.8c4.433,0,7.068,2.2,7.068,5.642a4.937,4.937,0,0,1-3.689,4.96,5.277,5.277,0,0,1,4.185,5.239C630.084,631.126,627.449,633.451,622.861,633.451ZM621.5,615.936h-3.472v4.557H621.5c1.736,0,2.7-.775,2.7-2.263S623.233,615.936,621.5,615.936Zm.372,8.433h-3.844v4.805h3.906c1.767,0,2.79-.806,2.79-2.357S623.636,624.368,621.869,624.368Z" transform="translate(-516.039 -610.511)" fill="#263238"/>
      <path id="Path_9" data-name="Path 9" d="M670.35,622.568a6.021,6.021,0,0,1,5.332,2.7v-2.449h5.3v17.3h-5.3v-2.449a6.115,6.115,0,0,1-5.363,2.7c-4.216,0-7.595-3.472-7.595-8.928S666.1,622.568,670.35,622.568Zm1.55,4.619c-1.984,0-3.782,1.488-3.782,4.247s1.8,4.309,3.782,4.309c2.015,0,3.782-1.519,3.782-4.278S673.915,627.187,671.9,627.187Z" transform="translate(-546.664 -617.174)" fill="#263238"/>
      <path id="Path_10" data-name="Path 10" d="M731.7,630.82c0-2.356-1.3-3.658-3.317-3.658s-3.317,1.3-3.317,3.658v9.393h-5.3v-17.3h5.3v2.294a6.343,6.343,0,0,1,5.239-2.48c4,0,6.665,2.728,6.665,7.378v10.106H731.7Z" transform="translate(-581.6 -617.273)" fill="#263238"/>
      <path id="Path_11" data-name="Path 11" d="M773.682,608.648h5.3v12.679l5.239-7.037h6.541l-7.192,8.68,7.254,8.618h-6.572l-5.27-7.254v7.254h-5.3Z" transform="translate(-614.627 -608.648)" fill="#263238"/>
    </g>
    <g id="Group_2" data-name="Group 2" transform="translate(260.148 617.524)">
      <path id="Path_12" data-name="Path 12" d="M361.834,689.592h3.2l4.473,10.458,4.474-10.458h3.184v14.065h-2.821v-9.148l-3.768,9.148h-2.136l-3.788-9.148v9.148h-2.821Z" transform="translate(-361.834 -689.41)" fill="#263238"/>
      <path id="Path_13" data-name="Path 13" d="M449.637,700.944h-5.6l-.927,2.68h-2.962l5.058-14.085h3.284l5.057,14.085h-2.982Zm-2.8-8.141-2.035,5.884h4.07Z" transform="translate(-409.801 -689.378)" fill="#263238"/>
      <path id="Path_14" data-name="Path 14" d="M525.444,689.539v14.085h-2.821l-6.387-9.652v9.652h-2.821V689.539h2.821l6.387,9.672v-9.672Z" transform="translate(-454.678 -689.378)" fill="#263238"/>
      <path id="Path_15" data-name="Path 15" d="M592.687,700.944h-5.6l-.927,2.68H583.2l5.058-14.085h3.285l5.057,14.085h-2.982Zm-2.8-8.141-2.035,5.884h4.071Z" transform="translate(-497.421 -689.378)" fill="#263238"/>
      <path id="Path_16" data-name="Path 16" d="M668.418,693.536h-3.244a3.536,3.536,0,0,0-3.3-1.813c-2.519,0-4.272,1.793-4.272,4.594,0,2.861,1.773,4.634,4.393,4.634a3.818,3.818,0,0,0,3.99-3.244h-4.836v-2.156h7.617v2.459a6.874,6.874,0,0,1-6.871,5.481,7.184,7.184,0,1,1-.02-14.367C665.013,689.123,667.512,690.715,668.418,693.536Z" transform="translate(-541.215 -689.123)" fill="#263238"/>
      <path id="Path_17" data-name="Path 17" d="M738.361,691.836h-5.34v3.526h4.736V697.6h-4.736v3.728h5.34v2.3H730.2V689.539h8.161Z" transform="translate(-587.462 -689.378)" fill="#263238"/>
      <path id="Path_18" data-name="Path 18" d="M796.944,689.592c3.385,0,5.078,1.955,5.078,4.312a4.062,4.062,0,0,1-3.2,4.05l3.365,5.7h-3.265l-3.1-5.481h-1.33v5.481h-2.821V689.592Zm-.1,2.337h-2.358v4.131h2.358c1.572,0,2.277-.826,2.277-2.1C799.12,692.715,798.414,691.929,796.843,691.929Z" transform="translate(-625.109 -689.41)" fill="#263238"/>
    </g>
  </g>
</svg>
